<svg id="Layer_1" data-name="Layer 1" xmlns="http://www.w3.org/2000/svg" viewBox="0 0 60 20"><defs><style>.cls-1{fill:#ff0;}</style></defs><path class="cls-1" d="M11.37,15.49l-.55,4.11H7.11L10.3.39h5.22L18.75,19.6H14.89l-.57-4.11Z"/><path class="cls-1" d="M20.07.39h3.71V16h5.13l-.35,3.58H20.07Z"/><path class="cls-1" d="M30.11.39h5.37C38.38.39,40,2.15,40,5.32c0,2.4-.92,3.53-1.92,4,1.16.55,2.36,1.77,2.36,4.62,0,3.81-2,5.7-5.07,5.7H30.11Z"/><path class="cls-1" d="M52.89,9.87c0,7.05-1.62,10.09-5.63,10.09-3.75,0-5.41-3.1-5.41-10.18C41.85,3,43.7,0,47.41,0S52.89,3.19,52.89,9.87Z"/></svg>