<svg viewBox="0 0 24 24" xmlns="http://www.w3.org/2000/svg" id="Paper-Write--Streamline-Ultimate" height="24" width="24">
  <desc>
    Paper Write Streamline Icon: https://streamlinehq.com
  </desc>
  <path d="M18.5 19v3.5a1 1 0 0 1 -1 1h-16a1 1 0 0 1 -1 -1v-18a1 1 0 0 1 1 -1h3" fill="none" stroke="#000000" stroke-linecap="round" stroke-linejoin="round" stroke-width="1"></path>
  <path d="M14.5 3.5h3a1 1 0 0 1 1 1V8" fill="none" stroke="#000000" stroke-linecap="round" stroke-linejoin="round" stroke-width="1"></path>
  <path d="M8 1.999a1.5 1.5 0 1 0 3 0 1.5 1.5 0 1 0 -3 0" fill="none" stroke="#000000" stroke-linecap="round" stroke-linejoin="round" stroke-width="1"></path>
  <path d="M10.915 2.5H13.5a1 1 0 0 1 1 1v1a1 1 0 0 1 -1 1h-8a1 1 0 0 1 -1 -1v-1a1 1 0 0 1 1 -1h2.585" fill="none" stroke="#000000" stroke-linecap="round" stroke-linejoin="round" stroke-width="1"></path>
  <path d="m3.5 9.499 12 0" fill="none" stroke="#000000" stroke-linecap="round" stroke-linejoin="round" stroke-width="1"></path>
  <path d="m3.5 13.499 9.466 0" fill="none" stroke="#000000" stroke-linecap="round" stroke-linejoin="round" stroke-width="1"></path>
  <path d="m3.5 17.499 7.983 0" fill="none" stroke="#000000" stroke-linecap="round" stroke-linejoin="round" stroke-width="1"></path>
  <path d="m17 17.5 -3.5 1 1 -3.5 5.982 -5.982a1.768 1.768 0 0 1 2.5 2.5Z" fill="none" stroke="#000000" stroke-linecap="round" stroke-linejoin="round" stroke-width="1"></path>
</svg>